<mxfile>
    <diagram id="AmlEpA3_1aYCrx1T0YUR" name="Page-1">
        <mxGraphModel dx="1296" dy="957" grid="0" gridSize="10" guides="1" tooltips="1" connect="1" arrows="1" fold="1" page="1" pageScale="1" pageWidth="1169" pageHeight="827" background="#ffffff" math="0" shadow="0">
            <root>
                <mxCell id="0"/>
                <mxCell id="1" parent="0"/>
                <mxCell id="2" value="&lt;font style=&quot;font-size: 16px&quot;&gt;Elève / Parent &lt;br&gt;d'élève&lt;/font&gt;" style="shape=umlActor;verticalLabelPosition=bottom;verticalAlign=top;html=1;strokeWidth=3;strokeColor=#C64754;fillColor=#f9a6ae;fontColor=#830C17;fontStyle=1" parent="1" vertex="1">
                    <mxGeometry x="80" y="340" width="30" height="60" as="geometry"/>
                </mxCell>
                <mxCell id="9" value="&lt;font size=&quot;1&quot; color=&quot;#830c17&quot;&gt;&lt;span style=&quot;font-size: 28px&quot;&gt;&lt;b&gt;Package &lt;/b&gt;&lt;i style=&quot;font-weight: bold&quot;&gt;&quot;Gérer les tâches et RdV&quot;&lt;/i&gt; (ébauche)&lt;/span&gt;&lt;/font&gt;" style="text;html=1;strokeColor=none;fillColor=none;align=left;verticalAlign=middle;whiteSpace=wrap;rounded=0;fontColor=#660000;" parent="1" vertex="1">
                    <mxGeometry x="35" y="60" width="610" height="20" as="geometry"/>
                </mxCell>
                <mxCell id="10" value="" style="rounded=1;whiteSpace=wrap;html=1;fontColor=#660000;strokeWidth=3;strokeColor=none;fillColor=#F9A6AE;gradientColor=#fee7ea;gradientDirection=north;arcSize=2;" parent="1" vertex="1">
                    <mxGeometry x="241" y="140" width="680" height="1020" as="geometry"/>
                </mxCell>
                <mxCell id="12" value="&lt;font style=&quot;font-size: 16px&quot;&gt;Tuteur&lt;br&gt;&lt;/font&gt;" style="shape=umlActor;verticalLabelPosition=bottom;verticalAlign=top;html=1;strokeWidth=3;strokeColor=#C64754;fillColor=#f9a6ae;fontColor=#830C17;fontStyle=1" parent="1" vertex="1">
                    <mxGeometry x="80" y="760" width="30" height="60" as="geometry"/>
                </mxCell>
                <mxCell id="13" value="&lt;font color=&quot;#830c17&quot;&gt;&lt;span style=&quot;font-size: 20px&quot;&gt;&lt;b&gt;Appli web&lt;i&gt; Learn@Home&lt;/i&gt;&lt;/b&gt;&lt;/span&gt;&lt;/font&gt;" style="text;html=1;strokeColor=none;fillColor=none;align=center;verticalAlign=middle;whiteSpace=wrap;rounded=0;fontColor=#660000;" parent="1" vertex="1">
                    <mxGeometry x="657" y="149" width="250" height="20" as="geometry"/>
                </mxCell>
                <mxCell id="19" value="&lt;font style=&quot;font-size: 14px&quot;&gt;&lt;b&gt;&lt;font style=&quot;font-size: 14px&quot;&gt;Consulter le détail&lt;br&gt;&lt;/font&gt;d'une tâche&lt;br&gt;&lt;/b&gt;&lt;/font&gt;" style="ellipse;whiteSpace=wrap;html=1;rounded=1;strokeWidth=3;fontColor=#0e2723;strokeColor=none;fillColor=#defefa;gradientColor=#7dbbb2;" parent="1" vertex="1">
                    <mxGeometry x="320" y="160" width="200" height="70" as="geometry"/>
                </mxCell>
                <mxCell id="31" value="" style="endArrow=none;html=1;fontColor=#0e2723;strokeWidth=3;strokeColor=#830C17;exitX=0;exitY=0.5;exitDx=0;exitDy=0;" parent="1" source="19" edge="1">
                    <mxGeometry width="50" height="50" relative="1" as="geometry">
                        <mxPoint x="338.5" y="292" as="sourcePoint"/>
                        <mxPoint x="120" y="370" as="targetPoint"/>
                    </mxGeometry>
                </mxCell>
                <mxCell id="34" value="" style="endArrow=none;html=1;fontColor=#0e2723;strokeWidth=3;strokeColor=#830C17;exitX=0;exitY=0.5;exitDx=0;exitDy=0;" parent="1" source="19" edge="1">
                    <mxGeometry width="50" height="50" relative="1" as="geometry">
                        <mxPoint x="338.5" y="292" as="sourcePoint"/>
                        <mxPoint x="120" y="790" as="targetPoint"/>
                    </mxGeometry>
                </mxCell>
                <mxCell id="37" value="&lt;font style=&quot;font-size: 14px&quot;&gt;&lt;b&gt;Me créer une tâche&lt;br&gt;&lt;/b&gt;&lt;/font&gt;" style="ellipse;whiteSpace=wrap;html=1;rounded=1;strokeWidth=3;fontColor=#0e2723;strokeColor=none;fillColor=#defefa;gradientColor=#7dbbb2;" parent="1" vertex="1">
                    <mxGeometry x="320" y="320" width="200" height="70" as="geometry"/>
                </mxCell>
                <mxCell id="38" value="" style="endArrow=none;html=1;fontColor=#0e2723;strokeWidth=3;strokeColor=#830C17;exitX=0;exitY=0.5;exitDx=0;exitDy=0;" parent="1" source="37" edge="1">
                    <mxGeometry width="50" height="50" relative="1" as="geometry">
                        <mxPoint x="495" y="530" as="sourcePoint"/>
                        <mxPoint x="119" y="370" as="targetPoint"/>
                    </mxGeometry>
                </mxCell>
                <mxCell id="39" value="" style="endArrow=none;html=1;fontColor=#0e2723;strokeWidth=3;strokeColor=#830C17;exitX=0;exitY=0.5;exitDx=0;exitDy=0;" parent="1" source="37" edge="1">
                    <mxGeometry width="50" height="50" relative="1" as="geometry">
                        <mxPoint x="495" y="382" as="sourcePoint"/>
                        <mxPoint x="120" y="790" as="targetPoint"/>
                    </mxGeometry>
                </mxCell>
                <mxCell id="40" value="&lt;font style=&quot;font-size: 14px&quot;&gt;&lt;b&gt;Voir l'ensemble&lt;br&gt;de mes tâches&lt;/b&gt;&lt;b&gt;&lt;br&gt;&lt;/b&gt;&lt;/font&gt;" style="ellipse;whiteSpace=wrap;html=1;rounded=1;strokeWidth=3;fontColor=#0e2723;strokeColor=none;fillColor=#defefa;gradientColor=#7dbbb2;" vertex="1" parent="1">
                    <mxGeometry x="320" y="240" width="200" height="70" as="geometry"/>
                </mxCell>
                <mxCell id="41" value="&lt;font style=&quot;font-size: 14px&quot;&gt;&lt;b&gt;Voir l'ensemble des tâches d'un de mes élèves&lt;br&gt;&lt;/b&gt;&lt;/font&gt;" style="ellipse;whiteSpace=wrap;html=1;rounded=1;strokeWidth=3;fontColor=#0e2723;strokeColor=none;fillColor=#defefa;gradientColor=#7dbbb2;" vertex="1" parent="1">
                    <mxGeometry x="320" y="580" width="200" height="70" as="geometry"/>
                </mxCell>
                <mxCell id="42" value="&lt;font style=&quot;font-size: 14px&quot;&gt;&lt;b&gt;Modifier une de&lt;br&gt;mes tâches&lt;br&gt;&lt;/b&gt;&lt;/font&gt;" style="ellipse;whiteSpace=wrap;html=1;rounded=1;strokeWidth=3;fontColor=#0e2723;strokeColor=none;fillColor=#defefa;gradientColor=#7dbbb2;" vertex="1" parent="1">
                    <mxGeometry x="320" y="400" width="200" height="70" as="geometry"/>
                </mxCell>
                <mxCell id="43" value="&lt;font style=&quot;font-size: 14px&quot;&gt;&lt;b&gt;Modifier une tâche&lt;br&gt;d'un de mes élèves&lt;br&gt;&lt;/b&gt;&lt;/font&gt;" style="ellipse;whiteSpace=wrap;html=1;rounded=1;strokeWidth=3;fontColor=#0e2723;strokeColor=none;fillColor=#defefa;gradientColor=#7dbbb2;" vertex="1" parent="1">
                    <mxGeometry x="320" y="740" width="200" height="70" as="geometry"/>
                </mxCell>
                <mxCell id="44" value="&lt;font style=&quot;font-size: 14px&quot;&gt;&lt;b&gt;Accéder à mon&lt;br&gt;tableau de bord&lt;br&gt;&lt;/b&gt;&lt;/font&gt;" style="ellipse;whiteSpace=wrap;html=1;rounded=1;strokeWidth=3;fontColor=#0e2723;strokeColor=none;fillColor=#defefa;gradientColor=#7dbbb2;" vertex="1" parent="1">
                    <mxGeometry x="670" y="379" width="200" height="70" as="geometry"/>
                </mxCell>
                <mxCell id="45" value="&lt;font style=&quot;font-size: 14px&quot;&gt;&lt;b&gt;Supprimer une de &lt;br&gt;mes tâches&lt;br&gt;&lt;/b&gt;&lt;/font&gt;" style="ellipse;whiteSpace=wrap;html=1;rounded=1;strokeWidth=3;fontColor=#0e2723;strokeColor=none;fillColor=#defefa;gradientColor=#7dbbb2;" vertex="1" parent="1">
                    <mxGeometry x="320" y="480" width="200" height="70" as="geometry"/>
                </mxCell>
                <mxCell id="46" value="&lt;font style=&quot;font-size: 14px&quot;&gt;&lt;b&gt;Supprimer une tâche&lt;br&gt;d'un de mes élèves&lt;br&gt;&lt;/b&gt;&lt;/font&gt;" style="ellipse;whiteSpace=wrap;html=1;rounded=1;strokeWidth=3;fontColor=#0e2723;strokeColor=none;fillColor=#defefa;gradientColor=#7dbbb2;" vertex="1" parent="1">
                    <mxGeometry x="320" y="820" width="200" height="70" as="geometry"/>
                </mxCell>
                <mxCell id="47" value="&lt;font style=&quot;font-size: 14px&quot;&gt;&lt;b&gt;Créer une tâche pour &lt;br&gt;un de mes élèves&lt;br&gt;&lt;/b&gt;&lt;/font&gt;" style="ellipse;whiteSpace=wrap;html=1;rounded=1;strokeWidth=3;fontColor=#0e2723;strokeColor=none;fillColor=#defefa;gradientColor=#7dbbb2;" vertex="1" parent="1">
                    <mxGeometry x="320" y="660" width="200" height="70" as="geometry"/>
                </mxCell>
                <mxCell id="48" value="&lt;font style=&quot;font-size: 14px&quot;&gt;&lt;b&gt;Créer un RdV avec&lt;br&gt;un de mes élèves&lt;br&gt;&lt;/b&gt;&lt;/font&gt;" style="ellipse;whiteSpace=wrap;html=1;rounded=1;strokeWidth=3;fontColor=#0e2723;strokeColor=none;fillColor=#defefa;gradientColor=#7dbbb2;" vertex="1" parent="1">
                    <mxGeometry x="320" y="900" width="200" height="70" as="geometry"/>
                </mxCell>
                <mxCell id="49" value="&lt;font style=&quot;font-size: 14px&quot;&gt;&lt;b&gt;Modifier un RdV avec&lt;br&gt;un de mes élèves&lt;br&gt;&lt;/b&gt;&lt;/font&gt;" style="ellipse;whiteSpace=wrap;html=1;rounded=1;strokeWidth=3;fontColor=#0e2723;strokeColor=none;fillColor=#defefa;gradientColor=#7dbbb2;" vertex="1" parent="1">
                    <mxGeometry x="320" y="980" width="200" height="70" as="geometry"/>
                </mxCell>
                <mxCell id="50" value="&lt;font style=&quot;font-size: 14px&quot;&gt;&lt;b&gt;Supprimer un RdV avec&lt;br&gt;un de mes élèves&lt;br&gt;&lt;/b&gt;&lt;/font&gt;" style="ellipse;whiteSpace=wrap;html=1;rounded=1;strokeWidth=3;fontColor=#0e2723;strokeColor=none;fillColor=#defefa;gradientColor=#7dbbb2;" vertex="1" parent="1">
                    <mxGeometry x="320" y="1060" width="200" height="70" as="geometry"/>
                </mxCell>
                <mxCell id="51" value="&lt;font style=&quot;font-size: 14px&quot;&gt;&lt;b&gt;Envoyer un message&lt;br&gt;à l'élève&lt;br&gt;&lt;/b&gt;&lt;/font&gt;" style="ellipse;whiteSpace=wrap;html=1;rounded=1;strokeWidth=3;fontColor=#0e2723;strokeColor=none;fillColor=#defefa;gradientColor=#7dbbb2;" vertex="1" parent="1">
                    <mxGeometry x="682" y="860" width="200" height="70" as="geometry"/>
                </mxCell>
                <mxCell id="53" value="" style="endArrow=none;html=1;fontColor=#0e2723;strokeWidth=3;strokeColor=#830C17;exitX=0;exitY=0.5;exitDx=0;exitDy=0;" edge="1" parent="1" source="40">
                    <mxGeometry width="50" height="50" relative="1" as="geometry">
                        <mxPoint x="330" y="205" as="sourcePoint"/>
                        <mxPoint x="120" y="370" as="targetPoint"/>
                    </mxGeometry>
                </mxCell>
                <mxCell id="54" value="" style="endArrow=none;html=1;fontColor=#0e2723;strokeWidth=3;strokeColor=#830C17;exitX=0;exitY=0.5;exitDx=0;exitDy=0;" edge="1" parent="1" source="42">
                    <mxGeometry width="50" height="50" relative="1" as="geometry">
                        <mxPoint x="330" y="285" as="sourcePoint"/>
                        <mxPoint x="120" y="370" as="targetPoint"/>
                    </mxGeometry>
                </mxCell>
                <mxCell id="55" value="" style="endArrow=none;html=1;fontColor=#0e2723;strokeWidth=3;strokeColor=#830C17;exitX=0;exitY=0.5;exitDx=0;exitDy=0;" edge="1" parent="1" source="45">
                    <mxGeometry width="50" height="50" relative="1" as="geometry">
                        <mxPoint x="330" y="445" as="sourcePoint"/>
                        <mxPoint x="120" y="370" as="targetPoint"/>
                    </mxGeometry>
                </mxCell>
                <mxCell id="56" value="" style="endArrow=none;html=1;fontColor=#0e2723;strokeWidth=3;strokeColor=#830C17;exitX=0;exitY=0.5;exitDx=0;exitDy=0;" edge="1" parent="1" source="40">
                    <mxGeometry width="50" height="50" relative="1" as="geometry">
                        <mxPoint x="330" y="365" as="sourcePoint"/>
                        <mxPoint x="120" y="790" as="targetPoint"/>
                    </mxGeometry>
                </mxCell>
                <mxCell id="57" value="" style="endArrow=none;html=1;fontColor=#0e2723;strokeWidth=3;strokeColor=#830C17;exitX=0;exitY=0.5;exitDx=0;exitDy=0;" edge="1" parent="1" source="42">
                    <mxGeometry width="50" height="50" relative="1" as="geometry">
                        <mxPoint x="330" y="285" as="sourcePoint"/>
                        <mxPoint x="120" y="790" as="targetPoint"/>
                    </mxGeometry>
                </mxCell>
                <mxCell id="58" value="" style="endArrow=none;html=1;fontColor=#0e2723;strokeWidth=3;strokeColor=#830C17;exitX=0;exitY=0.5;exitDx=0;exitDy=0;" edge="1" parent="1" source="45">
                    <mxGeometry width="50" height="50" relative="1" as="geometry">
                        <mxPoint x="330" y="445" as="sourcePoint"/>
                        <mxPoint x="120" y="790" as="targetPoint"/>
                    </mxGeometry>
                </mxCell>
                <mxCell id="59" value="" style="endArrow=none;html=1;fontColor=#0e2723;strokeWidth=3;strokeColor=#830C17;exitX=0;exitY=0.5;exitDx=0;exitDy=0;" edge="1" parent="1" source="41">
                    <mxGeometry width="50" height="50" relative="1" as="geometry">
                        <mxPoint x="330" y="525" as="sourcePoint"/>
                        <mxPoint x="120" y="790" as="targetPoint"/>
                    </mxGeometry>
                </mxCell>
                <mxCell id="60" value="" style="endArrow=none;html=1;fontColor=#0e2723;strokeWidth=3;strokeColor=#830C17;exitX=0;exitY=0.5;exitDx=0;exitDy=0;" edge="1" parent="1" source="47">
                    <mxGeometry width="50" height="50" relative="1" as="geometry">
                        <mxPoint x="330" y="625" as="sourcePoint"/>
                        <mxPoint x="120" y="790" as="targetPoint"/>
                    </mxGeometry>
                </mxCell>
                <mxCell id="61" value="" style="endArrow=none;html=1;fontColor=#0e2723;strokeWidth=3;strokeColor=#830C17;exitX=0;exitY=0.5;exitDx=0;exitDy=0;" edge="1" parent="1" source="43">
                    <mxGeometry width="50" height="50" relative="1" as="geometry">
                        <mxPoint x="330" y="705" as="sourcePoint"/>
                        <mxPoint x="120" y="790" as="targetPoint"/>
                    </mxGeometry>
                </mxCell>
                <mxCell id="62" value="" style="endArrow=none;html=1;fontColor=#0e2723;strokeWidth=3;strokeColor=#830C17;exitX=0;exitY=0.5;exitDx=0;exitDy=0;" edge="1" parent="1" source="46">
                    <mxGeometry width="50" height="50" relative="1" as="geometry">
                        <mxPoint x="330" y="785" as="sourcePoint"/>
                        <mxPoint x="120" y="790" as="targetPoint"/>
                    </mxGeometry>
                </mxCell>
                <mxCell id="63" value="" style="endArrow=none;html=1;fontColor=#0e2723;strokeWidth=3;strokeColor=#830C17;exitX=0;exitY=0.5;exitDx=0;exitDy=0;" edge="1" parent="1" source="48">
                    <mxGeometry width="50" height="50" relative="1" as="geometry">
                        <mxPoint x="330" y="865" as="sourcePoint"/>
                        <mxPoint x="120" y="790" as="targetPoint"/>
                    </mxGeometry>
                </mxCell>
                <mxCell id="64" value="" style="endArrow=none;html=1;fontColor=#0e2723;strokeWidth=3;strokeColor=#830C17;exitX=0;exitY=0.5;exitDx=0;exitDy=0;" edge="1" parent="1" source="49">
                    <mxGeometry width="50" height="50" relative="1" as="geometry">
                        <mxPoint x="330" y="945" as="sourcePoint"/>
                        <mxPoint x="120" y="790" as="targetPoint"/>
                    </mxGeometry>
                </mxCell>
                <mxCell id="65" value="" style="endArrow=none;html=1;fontColor=#0e2723;strokeWidth=3;strokeColor=#830C17;exitX=0;exitY=0.5;exitDx=0;exitDy=0;" edge="1" parent="1" source="50">
                    <mxGeometry width="50" height="50" relative="1" as="geometry">
                        <mxPoint x="340" y="955" as="sourcePoint"/>
                        <mxPoint x="120" y="790" as="targetPoint"/>
                    </mxGeometry>
                </mxCell>
                <mxCell id="66" value="" style="endArrow=classic;html=1;fontColor=#0e2723;strokeColor=#0E2723;strokeWidth=3;exitX=1;exitY=0.5;exitDx=0;exitDy=0;dashed=1;entryX=0;entryY=0;entryDx=0;entryDy=0;" edge="1" parent="1" source="40" target="44">
                    <mxGeometry width="50" height="50" relative="1" as="geometry">
                        <mxPoint x="520" y="265" as="sourcePoint"/>
                        <mxPoint x="650" y="260" as="targetPoint"/>
                    </mxGeometry>
                </mxCell>
                <mxCell id="67" value="" style="endArrow=classic;html=1;fontColor=#0e2723;strokeColor=#0E2723;strokeWidth=3;exitX=1;exitY=0.5;exitDx=0;exitDy=0;dashed=1;entryX=0;entryY=1;entryDx=0;entryDy=0;" edge="1" parent="1" source="41" target="44">
                    <mxGeometry width="50" height="50" relative="1" as="geometry">
                        <mxPoint x="530" y="285" as="sourcePoint"/>
                        <mxPoint x="630" y="290" as="targetPoint"/>
                    </mxGeometry>
                </mxCell>
                <mxCell id="69" value="" style="endArrow=classic;html=1;fontColor=#0e2723;strokeColor=#0E2723;strokeWidth=3;exitX=1;exitY=0.5;exitDx=0;exitDy=0;dashed=1;entryX=0;entryY=0;entryDx=0;entryDy=0;" edge="1" parent="1" source="47" target="51">
                    <mxGeometry width="50" height="50" relative="1" as="geometry">
                        <mxPoint x="530" y="625" as="sourcePoint"/>
                        <mxPoint x="709.2893218813454" y="448.748737341529" as="targetPoint"/>
                    </mxGeometry>
                </mxCell>
                <mxCell id="70" value="" style="endArrow=classic;html=1;fontColor=#0e2723;strokeColor=#0E2723;strokeWidth=3;exitX=1;exitY=0.5;exitDx=0;exitDy=0;dashed=1;entryX=0;entryY=0;entryDx=0;entryDy=0;" edge="1" parent="1" source="43" target="51">
                    <mxGeometry width="50" height="50" relative="1" as="geometry">
                        <mxPoint x="530" y="705" as="sourcePoint"/>
                        <mxPoint x="710" y="860" as="targetPoint"/>
                    </mxGeometry>
                </mxCell>
                <mxCell id="71" value="" style="endArrow=classic;html=1;fontColor=#0e2723;strokeColor=#0E2723;strokeWidth=3;exitX=1;exitY=0.5;exitDx=0;exitDy=0;dashed=1;entryX=0;entryY=0.5;entryDx=0;entryDy=0;" edge="1" parent="1" source="46" target="51">
                    <mxGeometry width="50" height="50" relative="1" as="geometry">
                        <mxPoint x="530" y="785" as="sourcePoint"/>
                        <mxPoint x="740" y="840" as="targetPoint"/>
                    </mxGeometry>
                </mxCell>
                <mxCell id="72" value="" style="endArrow=classic;html=1;fontColor=#0e2723;strokeColor=#0E2723;strokeWidth=3;exitX=1;exitY=0.5;exitDx=0;exitDy=0;dashed=1;entryX=0;entryY=0.5;entryDx=0;entryDy=0;" edge="1" parent="1" source="48" target="51">
                    <mxGeometry width="50" height="50" relative="1" as="geometry">
                        <mxPoint x="530" y="865" as="sourcePoint"/>
                        <mxPoint x="692" y="865" as="targetPoint"/>
                    </mxGeometry>
                </mxCell>
                <mxCell id="73" value="" style="endArrow=classic;html=1;fontColor=#0e2723;strokeColor=#0E2723;strokeWidth=3;exitX=1;exitY=0.5;exitDx=0;exitDy=0;dashed=1;entryX=0;entryY=1;entryDx=0;entryDy=0;" edge="1" parent="1" source="49" target="51">
                    <mxGeometry width="50" height="50" relative="1" as="geometry">
                        <mxPoint x="530" y="945" as="sourcePoint"/>
                        <mxPoint x="720" y="940" as="targetPoint"/>
                    </mxGeometry>
                </mxCell>
                <mxCell id="74" value="" style="endArrow=classic;html=1;fontColor=#0e2723;strokeColor=#0E2723;strokeWidth=3;exitX=1;exitY=0.5;exitDx=0;exitDy=0;dashed=1;entryX=0;entryY=1;entryDx=0;entryDy=0;" edge="1" parent="1" source="50" target="51">
                    <mxGeometry width="50" height="50" relative="1" as="geometry">
                        <mxPoint x="530" y="1025" as="sourcePoint"/>
                        <mxPoint x="721.2893218813454" y="889.7487373415292" as="targetPoint"/>
                    </mxGeometry>
                </mxCell>
            </root>
        </mxGraphModel>
    </diagram>
</mxfile>